<?xml version="1.0" standalone="no"?>
<!DOCTYPE svg PUBLIC "-//W3C//DTD SVG 20010904//EN"
 "http://www.w3.org/TR/2001/REC-SVG-20010904/DTD/svg10.dtd">
<svg version="1.0" xmlns="http://www.w3.org/2000/svg"
 width="700.000000pt" height="700.000000pt" viewBox="0 0 700.000000 700.000000"
 preserveAspectRatio="xMidYMid meet">
<metadata>
Created by potrace 1.11, written by Peter Selinger 2001-2013
</metadata>
<g transform="translate(0.000000,700.000000) scale(0.100000,-0.100000)"
fill="#000000" stroke="none">
<path d="M2711 6234 c-12 -15 -21 -30 -21 -34 0 -4 -11 -81 -25 -171 -25 -161
-26 -189 -5 -189 11 0 399 363 413 387 17 29 -6 33 -173 33 l-169 0 -20 -26z"/>
<path d="M3317 6247 c-40 -18 -675 -615 -702 -662 -32 -53 -67 -272 -54 -339
6 -33 129 -248 459 -803 248 -417 457 -762 465 -768 10 -7 21 -6 33 1 25 16
911 1511 924 1559 13 49 -20 281 -48 340 -22 46 -662 651 -710 671 -43 18
-326 19 -367 1z"/>
<path d="M3924 6249 c-7 -12 41 -60 290 -293 95 -89 130 -116 138 -108 9 9 6
51 -11 169 -26 183 -36 219 -61 233 -27 14 -347 13 -356 -1z"/>
<path d="M2511 4969 c-6 -13 -105 -654 -222 -1424 -184 -1222 -209 -1406 -200
-1445 11 -52 501 -1083 528 -1112 26 -29 45 -37 316 -143 147 -56 260 -95 282
-95 45 0 165 60 194 96 l21 27 0 1296 c0 1231 -1 1298 -19 1336 -26 58 -850
1446 -872 1469 -18 19 -18 19 -28 -5z"/>
<path d="M4037 4263 c-233 -395 -433 -734 -443 -753 -18 -34 -19 -90 -22
-1330 -2 -1250 -1 -1296 17 -1326 24 -40 145 -104 197 -104 24 0 132 36 299
101 200 77 267 108 292 132 41 41 531 1066 539 1130 4 28 -62 492 -206 1447
-116 772 -214 1408 -216 1412 -3 4 -11 8 -18 8 -7 0 -205 -323 -439 -717z"/>
</g>
</svg>
